<?xml version="1.0" encoding="UTF-8" standalone="no"?>
<!-- Created with Inkscape (http://www.inkscape.org/) -->

<svg
   version="1.1"
   id="svg66"
   width="800"
   height="800"
   viewBox="0 0 800 800"
   xmlns="http://www.w3.org/2000/svg"
   xmlns:svg="http://www.w3.org/2000/svg">
  <defs
     id="defs70" />
  <g
     id="g72"
     transform="translate(-10.820312,-5.25)">
    <g
       id="g2213"
       transform="translate(-305.3486,-523.34188)">
      <path
         id="path1144"
         style="opacity:1;fill:none;stroke:#000000;stroke-width:2;stroke-dasharray:none;stroke-opacity:1"
         d="m 370.85904,610.77542 h -19.23961 m 141.66457,1.43313 h 67.27693 m -139.10187,-0.86204 h 58.02239 m -93.51871,-0.1981 h 21.10414 m 167.02683,1.40078 a 7.0152197,7.0152197 0 0 1 -7.01522,7.01522 7.0152197,7.0152197 0 0 1 -7.01522,-7.01522 7.0152197,7.0152197 0 0 1 7.01522,-7.01522 7.0152197,7.0152197 0 0 1 7.01522,7.01522 z m -80.96213,0.0882 a 7.0152197,7.0152197 0 0 1 -7.01522,7.01522 7.0152197,7.0152197 0 0 1 -7.01522,-7.01522 7.0152197,7.0152197 0 0 1 7.01522,-7.01522 7.0152197,7.0152197 0 0 1 7.01522,7.01522 z m -71.89383,-1.06653 a 7.0152197,7.0152197 0 0 1 -7.01522,7.01522 7.0152197,7.0152197 0 0 1 -7.01522,-7.01522 7.0152197,7.0152197 0 0 1 7.01522,-7.01522 7.0152197,7.0152197 0 0 1 7.01522,7.01522 z m -35.53323,-1.23901 a 7.0152197,7.0152197 0 0 1 -7.01522,7.01522 7.0152197,7.0152197 0 0 1 -7.01522,-7.01522 7.0152197,7.0152197 0 0 1 7.01522,-7.01522 7.0152197,7.0152197 0 0 1 7.01522,7.01522 z" />
    </g>
    <g
       id="g2220"
       transform="translate(-362.64082,83.493843)">
      <path
         id="path1150"
         style="opacity:1;fill:none;stroke:#000000;stroke-width:2;stroke-dasharray:none;stroke-opacity:1"
         d="m 1095.1255,461.1881 h 56.0502 m -121.7827,-0.40174 h 50.9135 m -105.44495,0.0369 h 39.43355 m 80.4583,0.26851 a 7.0152197,7.0152197 0 0 1 -7.0152,7.01522 7.0152197,7.0152197 0 0 1 -7.0153,-7.01522 7.0152197,7.0152197 0 0 1 7.0153,-7.01522 7.0152197,7.0152197 0 0 1 7.0152,7.01522 z m -65.8153,-0.40766 a 7.0152197,7.0152197 0 0 1 -7.0152,7.01522 7.0152197,7.0152197 0 0 1 -7.0152,-7.01522 7.0152197,7.0152197 0 0 1 7.0152,-7.01522 7.0152197,7.0152197 0 0 1 7.0152,7.01522 z" />
    </g>
    <g
       id="g2234"
       transform="translate(-621.02758,-191.44364)">
      <path
         id="path1152"
         style="opacity:1;fill:none;stroke:#000000;stroke-width:2;stroke-dasharray:none;stroke-opacity:1"
         d="m 941.92357,397.76688 12.78885,12.78885 21.44905,-21.44904" />
    </g>
    <g
       id="g2203"
       transform="translate(-468.85599,-51.585649)">
      <path
         id="path1156"
         style="opacity:1;fill:none;stroke:#000000;stroke-width:2;stroke-dasharray:none;stroke-opacity:1"
         d="m 750.06284,446.53973 32.84249,8.80012 m -39.32895,-18.54738 v -37.08933 m 4.72993,44.41307 a 4.5849342,4.5849342 0 0 1 -4.58494,4.58494 4.5849342,4.5849342 0 0 1 -4.58493,-4.58494 4.5849342,4.5849342 0 0 1 4.58493,-4.58493 4.5849342,4.5849342 0 0 1 4.58494,4.58493 z m 57.49455,-1.60336 a 63.133377,63.133377 0 0 1 -63.13338,63.13337 63.133377,63.133377 0 0 1 -63.13338,-63.13337 63.133377,63.133377 0 0 1 63.13338,-63.13338 63.133377,63.133377 0 0 1 63.13338,63.13338 z" />
    </g>
    <g
       id="g2237"
       transform="translate(-804.15166,66.893406)">
      <path
         style="opacity:1;fill:none;stroke:#000000;stroke-width:2;stroke-dasharray:none;stroke-opacity:1"
         d="m 880.35605,183.8928 42.95111,9.74546 -10.86422,11.18445 19.07814,19.07815 -7.65477,7.65477 -18.49602,-18.49602 -12.76823,12.76823 z"
         id="path1160" />
    </g>
    <g
       id="g2227"
       transform="translate(-311.1546,-401.34939)">
      <path
         id="rect1214"
         style="opacity:1;fill:none;stroke:#000000;stroke-width:2"
         d="m 870.69346,522.73657 h 129.95094 c 6.0287,0 10.8822,4.85348 10.8822,10.88224 v 87.45064 c 0,6.02876 -4.8535,10.88224 -10.8822,10.88224 H 870.69346 c -6.02876,0 -10.88224,-4.85348 -10.88224,-10.88224 v -87.45064 c 0,-6.02876 4.85348,-10.88224 10.88224,-10.88224 z m -9.89409,19.90708 H 1011.6536 M 909.8777,533 a 2.3496816,2.3496816 0 0 1 -2.34968,2.34968 A 2.3496816,2.3496816 0 0 1 905.17833,533 2.3496816,2.3496816 0 0 1 907.52802,530.65032 2.3496816,2.3496816 0 0 1 909.8777,533 Z m -15.25159,0.25732 a 2.3496816,2.3496816 0 0 1 -2.34968,2.34969 2.3496816,2.3496816 0 0 1 -2.34968,-2.34969 2.3496816,2.3496816 0 0 1 2.34968,-2.34968 2.3496816,2.3496816 0 0 1 2.34968,2.34968 z m -16.77258,0.15668 a 2.3496816,2.3496816 0 0 1 -2.34968,2.34968 2.3496816,2.3496816 0 0 1 -2.34969,-2.34968 2.3496816,2.3496816 0 0 1 2.34969,-2.34968 2.3496816,2.3496816 0 0 1 2.34968,2.34968 z" />
    </g>
    <g
       id="g2231"
       transform="translate(-1133.0834,178.92563)">
      <path
         id="rect1218"
         style="opacity:1;fill:none;stroke:#000000;stroke-width:2"
         d="m 1256.2549,509.94199 h 93.7975 c 6.0288,0 10.8823,4.85347 10.8823,10.88223 v 44.37749 c 0,6.02876 -4.8535,10.88224 -10.8823,10.88224 h -93.7975 c -6.0287,0 -10.8822,-4.85348 -10.8822,-10.88224 v -44.37749 c 0,-6.02876 4.8535,-10.88223 10.8822,-10.88223 z m -49.1461,-32.09275 h 77.5115 c 6.0288,0 10.8823,4.85348 10.8823,10.88224 v 47.16267 c 0,6.02876 -4.8535,10.88224 -10.8823,10.88224 h -77.5115 c -6.0288,0 -10.8822,-4.85348 -10.8822,-10.88224 v -47.16267 c 0,-6.02876 4.8534,-10.88224 10.8822,-10.88224 z" />
    </g>
    <g
       id="g2252"
       transform="translate(-407.32113,357.32647)">
      <path
         id="path2082"
         style="opacity:1;fill:none;stroke:#000000;stroke-width:2"
         d="m 743.60751,182.14835 a 56.133759,56.133759 0 0 1 -16.50637,39.75762 56.133759,56.133759 0 0 1 -39.81157,16.37583" />
    </g>
    <g
       id="g2249"
       transform="translate(-590.82086,16.158495)">
      <path
         id="path2156"
         style="opacity:1;fill:none;stroke:#000000;stroke-width:2;stroke-dasharray:none;stroke-opacity:1"
         d="m 1092.2459,596.71019 v 108.8293 m 8.1759,-73.62891 a 87.064766,87.064766 0 0 1 61.665,25.60176 87.064766,87.064766 0 0 1 25.3993,61.74868 M 1091.2302,596.477 a 125.43804,125.43804 0 0 1 88.8435,36.88559 125.43804,125.43804 0 0 1 36.5939,88.96404" />
    </g>
    <g
       id="g2244"
       transform="translate(-416.40855,86.81393)">
      <path
         id="path2162"
         style="color:#000000;fill:#000000;-inkscape-stroke:none"
         d="m 999.5918,297.76172 c -0.21412,-0.21514 -0.41986,-0.4396 -0.61328,-0.67383 -0.19842,-0.24028 -0.38554,-0.48931 -0.56055,-0.74805 -0.0318,-0.047 -0.0569,-0.0989 -0.0879,-0.14648 -15.45858,10.23785 -34.45898,13.94635 -52.78516,10.0918 l -0.41211,1.95703 c 18.91277,3.97794 38.52888,0.1293 54.45899,-10.48047 z" />
      <path
         id="path2192"
         style="color:#000000;fill:#000000;-inkscape-stroke:none"
         d="m 1001.2695,296.60938 c -0.086,-0.0783 -0.1757,-0.15231 -0.2578,-0.23438 -0.1745,-0.17456 -0.3408,-0.3582 -0.498,-0.54883 -0.1572,-0.19063 -0.3048,-0.38833 -0.4434,-0.59375 -0.035,-0.0522 -0.064,-0.10902 -0.0976,-0.16211 -0.54299,0.38236 -1.09036,0.75733 -1.64258,1.12305 0.031,0.0476 0.0561,0.0994 0.0879,0.14648 0.17501,0.25874 0.36213,0.50777 0.56055,0.74805 0.19342,0.23423 0.39916,0.45869 0.61328,0.67383 0.56385,-0.37555 1.12325,-0.7599 1.67765,-1.15234 z" />
      <path
         id="path2188"
         style="color:#000000;fill:#000000;-inkscape-stroke:none"
         d="m 1014.127,284.92969 c -0.052,-0.0659 -0.097,-0.13663 -0.1504,-0.20117 -0.1984,-0.24022 -0.4069,-0.4713 -0.627,-0.69141 -0.1963,-0.19631 -0.4048,-0.37951 -0.6172,-0.55859 -0.4304,0.50155 -0.8671,0.99824 -1.3125,1.48828 0.1818,0.15113 0.3565,0.30956 0.5235,0.47656 0.1745,0.1745 0.3409,0.35631 0.498,0.54687 0.1205,0.14607 0.2303,0.30024 0.3398,0.45508 0.4563,-0.49951 0.9047,-1.00439 1.3458,-1.51562 z" />
      <path
         id="path2186"
         style="color:#000000;fill:#000000;-inkscape-stroke:none"
         d="m 1029.5293,238.12695 c 0,16.77422 -6.0499,32.82794 -16.7969,45.35157 0.2124,0.17908 0.4209,0.36228 0.6172,0.55859 0.2201,0.22011 0.4286,0.45119 0.627,0.69141 0.053,0.0645 0.099,0.13524 0.1504,0.20117 11.1337,-12.90432 17.4023,-29.48287 17.4023,-46.80274 z" />
      <path
         id="path2197"
         style="display:inline;opacity:1;fill:none;stroke:#000000;stroke-width:2"
         d="m 1014.1452,290.27835 a 7.856051,7.856051 0 0 1 -7.8561,7.85605 7.856051,7.856051 0 0 1 -7.85603,-7.85605 7.856051,7.856051 0 0 1 7.85603,-7.85605 7.856051,7.856051 0 0 1 7.8561,7.85605 z" />
    </g>
  </g>
</svg>
